<svg width="900" height="600" viewBox="0 0 900 600" fill="none" xmlns="http://www.w3.org/2000/svg">
  <!-- Background -->
  <rect width="900" height="600" fill="#0a0a0b"/>
  
  <!-- Sidebar -->
  <rect x="0" y="0" width="280" height="600" fill="#111113"/>
  <rect x="0" y="0" width="280" height="1" fill="#ffffff" fill-opacity="0.06"/>
  <rect x="280" y="0" width="1" height="600" fill="#ffffff" fill-opacity="0.06"/>
  
  <!-- Sidebar header -->
  <rect x="16" y="16" width="248" height="40" rx="8" fill="#1a1a1d"/>
  <text x="28" y="42" font-family="system-ui" font-size="14" fill="#71717a">Search emails...</text>
  
  <!-- Filter pills -->
  <rect x="16" y="72" width="60" height="28" rx="14" fill="#a855f7"/>
  <text x="32" y="91" font-family="system-ui" font-size="12" fill="white">Unread</text>
  <rect x="84" y="72" width="40" height="28" rx="14" fill="#1a1a1d"/>
  <text x="94" y="91" font-family="system-ui" font-size="12" fill="#a1a1aa">All</text>
  
  <!-- Email items -->
  <g>
    <rect x="16" y="116" width="248" height="72" rx="8" fill="#a855f7" fill-opacity="0.1"/>
    <circle cx="40" cy="152" r="16" fill="#a855f7"/>
    <text x="40" y="157" font-family="system-ui" font-size="10" fill="white" text-anchor="middle">JD</text>
    <text x="64" y="140" font-family="system-ui" font-size="14" font-weight="600" fill="white">John Doe</text>
    <text x="64" y="158" font-family="system-ui" font-size="12" fill="#a1a1aa">Meeting tomorrow at 3pm</text>
    <text x="64" y="176" font-family="system-ui" font-size="11" fill="#71717a">2 min ago</text>
  </g>
  
  <g>
    <rect x="16" y="196" width="248" height="72" rx="8" fill="transparent"/>
    <circle cx="40" cy="232" r="16" fill="#3b82f6"/>
    <text x="40" y="237" font-family="system-ui" font-size="10" fill="white" text-anchor="middle">AS</text>
    <text x="64" y="220" font-family="system-ui" font-size="14" fill="#a1a1aa">Alice Smith</text>
    <text x="64" y="238" font-family="system-ui" font-size="12" fill="#71717a">Re: Project update</text>
    <text x="64" y="256" font-family="system-ui" font-size="11" fill="#71717a">1 hour ago</text>
  </g>
  
  <g>
    <rect x="16" y="276" width="248" height="72" rx="8" fill="transparent"/>
    <circle cx="40" cy="312" r="16" fill="#ec4899"/>
    <text x="40" y="317" font-family="system-ui" font-size="10" fill="white" text-anchor="middle">BW</text>
    <text x="64" y="300" font-family="system-ui" font-size="14" fill="#a1a1aa">Bob Wilson</text>
    <text x="64" y="318" font-family="system-ui" font-size="12" fill="#71717a">Thanks for your help!</text>
    <text x="64" y="336" font-family="system-ui" font-size="11" fill="#71717a">Yesterday</text>
  </g>
  
  <!-- Main content area -->
  <rect x="296" y="16" width="588" height="568" rx="8" fill="#111113"/>
  
  <!-- Chat header -->
  <rect x="312" y="32" width="556" height="56" rx="8" fill="#1a1a1d"/>
  <circle cx="348" cy="60" r="20" fill="#a855f7"/>
  <text x="348" y="66" font-family="system-ui" font-size="12" fill="white" text-anchor="middle">JD</text>
  <text x="380" y="54" font-family="system-ui" font-size="16" font-weight="600" fill="white">John Doe</text>
  <text x="380" y="72" font-family="system-ui" font-size="12" fill="#71717a">john.doe@example.com</text>
  
  <!-- Chat messages -->
  <rect x="312" y="120" width="300" height="60" rx="12" fill="#1a1a1d"/>
  <text x="328" y="145" font-family="system-ui" font-size="13" fill="#a1a1aa">Hey! Are we still on for the meeting</text>
  <text x="328" y="163" font-family="system-ui" font-size="13" fill="#a1a1aa">tomorrow?</text>
  
  <rect x="568" y="200" width="280" height="60" rx="12" fill="#a855f7"/>
  <text x="584" y="225" font-family="system-ui" font-size="13" fill="white">Yes! 3pm works great for me.</text>
  <text x="584" y="243" font-family="system-ui" font-size="13" fill="white">See you then! 👍</text>
  
  <rect x="312" y="280" width="340" height="80" rx="12" fill="#1a1a1d"/>
  <text x="328" y="305" font-family="system-ui" font-size="13" fill="#a1a1aa">Perfect! I've shared the agenda in the</text>
  <text x="328" y="323" font-family="system-ui" font-size="13" fill="#a1a1aa">calendar invite. Let me know if you have</text>
  <text x="328" y="341" font-family="system-ui" font-size="13" fill="#a1a1aa">any questions before then.</text>
  
  <!-- Input area -->
  <rect x="312" y="520" width="556" height="48" rx="12" fill="#1a1a1d"/>
  <text x="328" y="550" font-family="system-ui" font-size="14" fill="#71717a">Type a message...</text>
  
  <!-- Command palette overlay (semi-transparent) -->
  <rect x="250" y="150" width="400" height="300" rx="16" fill="#111113" stroke="#ffffff" stroke-opacity="0.1"/>
  <rect x="266" y="166" width="368" height="44" rx="10" fill="#1a1a1d"/>
  <text x="282" y="194" font-family="monospace" font-size="14" fill="#a1a1aa">mark all</text>
  
  <rect x="266" y="226" width="368" height="52" rx="8" fill="#a855f7" fill-opacity="0.2"/>
  <text x="290" y="258" font-family="system-ui" font-size="14" fill="white">Mark All as Read</text>
  <text x="586" y="258" font-family="monospace" font-size="12" fill="#71717a">⌘⇧R</text>
  
  <rect x="266" y="286" width="368" height="52" rx="8" fill="transparent"/>
  <text x="290" y="318" font-family="system-ui" font-size="14" fill="#a1a1aa">New Email</text>
  <text x="602" y="318" font-family="monospace" font-size="12" fill="#71717a">⌘N</text>
  
  <rect x="266" y="346" width="368" height="52" rx="8" fill="transparent"/>
  <text x="290" y="378" font-family="system-ui" font-size="14" fill="#a1a1aa">Switch Account</text>
  <text x="594" y="378" font-family="monospace" font-size="12" fill="#71717a">⌘,</text>
</svg>

